<?xml version="1.0" encoding="UTF-8" standalone="no"?>
<!DOCTYPE svg PUBLIC "-//W3C//DTD SVG 1.1//EN"
 "http://www.w3.org/Graphics/SVG/1.1/DTD/svg11.dtd">
<!-- Generated by graphviz version 2.34.0 (20130907.0228)
 -->
<!-- Title: %3 Pages: 1 -->
<svg width="2109pt" height="416pt"
 viewBox="0.00 0.00 2109.33 416.00" xmlns="http://www.w3.org/2000/svg" xmlns:xlink="http://www.w3.org/1999/xlink">
<g id="graph0" class="graph" transform="scale(1 1) rotate(0) translate(4 412)">
<title>%3</title>
<polygon fill="white" stroke="white" points="-4,4 -4,-412 2105.33,-412 2105.33,4 -4,4"/>
<!-- org_liveSense_service_markdown -->
<g id="node1" class="node"><title>org_liveSense_service_markdown</title>
<polygon fill="yellow" stroke="black" points="1365,-371 1365,-407 1553,-407 1553,-371 1365,-371"/>
<text text-anchor="middle" x="1459" y="-396.1" font-family="Arial" font-size="8.00">liveSense :: Service :: Markdown</text>
<polyline fill="none" stroke="black" points="1365,-389 1553,-389 "/>
<text text-anchor="middle" x="1459" y="-378.1" font-family="Arial" font-size="8.00">org.liveSense.service.markdown(2&#45;SNAPSHOT)</text>
</g>
<!-- org_apache_sling_commons_osgi -->
<g id="node2" class="node"><title>org_apache_sling_commons_osgi</title>
<polygon fill="green" stroke="black" points="1705.5,-297 1705.5,-333 1858.5,-333 1858.5,-297 1705.5,-297"/>
<text text-anchor="middle" x="1782" y="-322.1" font-family="Arial" font-size="8.00">Apache Sling Commons OSGi support</text>
<polyline fill="none" stroke="black" points="1705.5,-315 1858.5,-315 "/>
<text text-anchor="middle" x="1782" y="-304.1" font-family="Arial" font-size="8.00">org.apache.sling.commons.osgi(2.2.0)</text>
</g>
<!-- org_liveSense_service_markdown&#45;&gt;org_apache_sling_commons_osgi -->
<g id="edge1" class="edge"><title>org_liveSense_service_markdown&#45;&gt;org_apache_sling_commons_osgi</title>
<path fill="none" stroke="yellow" d="M1535.55,-370.937C1583.73,-360.196 1646.02,-346.312 1695.92,-335.189"/>
<polygon fill="yellow" stroke="yellow" points="1696.72,-338.595 1705.72,-333.003 1695.2,-331.762 1696.72,-338.595"/>
</g>
<!-- org_liveSense_core -->
<g id="node3" class="node"><title>org_liveSense_core</title>
<polygon fill="green" stroke="black" points="763.5,-297 763.5,-333 902.5,-333 902.5,-297 763.5,-297"/>
<text text-anchor="middle" x="833" y="-322.1" font-family="Arial" font-size="8.00">liveSense :: Core</text>
<polyline fill="none" stroke="black" points="763.5,-315 902.5,-315 "/>
<text text-anchor="middle" x="833" y="-304.1" font-family="Arial" font-size="8.00">org.liveSense.core(2&#45;SNAPSHOT)</text>
</g>
<!-- org_liveSense_service_markdown&#45;&gt;org_liveSense_core -->
<g id="edge2" class="edge"><title>org_liveSense_service_markdown&#45;&gt;org_liveSense_core</title>
<path fill="none" stroke="yellow" d="M1364.94,-377.182C1241.86,-363.025 1028.27,-338.459 912.729,-325.17"/>
<polygon fill="yellow" stroke="yellow" points="912.875,-321.664 902.541,-323.998 912.076,-328.618 912.875,-321.664"/>
</g>
<!-- org_apache_felix_scr -->
<g id="node4" class="node"><title>org_apache_felix_scr</title>
<polygon fill="green" stroke="black" points="1249,-297 1249,-333 1387,-333 1387,-297 1249,-297"/>
<text text-anchor="middle" x="1318" y="-322.1" font-family="Arial" font-size="8.00">Apache Felix Declarative Services</text>
<polyline fill="none" stroke="black" points="1249,-315 1387,-315 "/>
<text text-anchor="middle" x="1318" y="-304.1" font-family="Arial" font-size="8.00">org.apache.felix.scr(1.6.2)</text>
</g>
<!-- org_liveSense_service_markdown&#45;&gt;org_apache_felix_scr -->
<g id="edge3" class="edge"><title>org_liveSense_service_markdown&#45;&gt;org_apache_felix_scr</title>
<path fill="none" stroke="yellow" d="M1425.58,-370.937C1406.15,-361.012 1381.45,-348.401 1360.63,-337.766"/>
<polygon fill="yellow" stroke="yellow" points="1362.16,-334.621 1351.66,-333.19 1358.98,-340.855 1362.16,-334.621"/>
</g>
<!-- org_ops4j_pax_logging_pax_logging_api -->
<g id="node5" class="node"><title>org_ops4j_pax_logging_pax_logging_api</title>
<polygon fill="green" stroke="black" points="1514.5,-297 1514.5,-333 1687.5,-333 1687.5,-297 1514.5,-297"/>
<text text-anchor="middle" x="1601" y="-322.1" font-family="Arial" font-size="8.00">OPS4J Pax Logging &#45; API</text>
<polyline fill="none" stroke="black" points="1514.5,-315 1687.5,-315 "/>
<text text-anchor="middle" x="1601" y="-304.1" font-family="Arial" font-size="8.00">org.ops4j.pax.logging.pax&#45;logging&#45;api(1.7.0)</text>
</g>
<!-- org_liveSense_service_markdown&#45;&gt;org_ops4j_pax_logging_pax_logging_api -->
<g id="edge4" class="edge"><title>org_liveSense_service_markdown&#45;&gt;org_ops4j_pax_logging_pax_logging_api</title>
<path fill="none" stroke="yellow" d="M1492.65,-370.937C1512.23,-361.012 1537.1,-348.401 1558.07,-337.766"/>
<polygon fill="yellow" stroke="yellow" points="1559.76,-340.834 1567.1,-333.19 1556.6,-334.591 1559.76,-340.834"/>
</g>
<!-- org_apache_felix_eventadmin -->
<g id="node6" class="node"><title>org_apache_felix_eventadmin</title>
<polygon fill="#3182bd" stroke="black" points="1924,-75 1924,-111 2064,-111 2064,-75 1924,-75"/>
<text text-anchor="middle" x="1994" y="-100.1" font-family="Arial" font-size="8.00">Apache Felix EventAdmin</text>
<polyline fill="none" stroke="black" points="1924,-93 2064,-93 "/>
<text text-anchor="middle" x="1994" y="-82.1" font-family="Arial" font-size="8.00">org.apache.felix.eventadmin(1.3.2)</text>
</g>
<!-- org_apache_sling_commons_osgi&#45;&gt;org_apache_felix_eventadmin -->
<g id="edge5" class="edge"><title>org_apache_sling_commons_osgi&#45;&gt;org_apache_felix_eventadmin</title>
<path fill="none" stroke="green" d="M1858.54,-303.726C1910.46,-295.032 1972.54,-280.658 1989,-260 2020.65,-220.289 2011.12,-156.653 2002.09,-120.804"/>
<polygon fill="green" stroke="green" points="2005.44,-119.8 1999.47,-111.05 1998.68,-121.616 2005.44,-119.8"/>
</g>
<!-- org_liveSense_core&#45;&gt;org_apache_sling_commons_osgi -->
<g id="edge8" class="edge"><title>org_liveSense_core&#45;&gt;org_apache_sling_commons_osgi</title>
<path fill="none" stroke="green" d="M902.798,-323.114C985.34,-332.267 1126.95,-346.583 1249,-352 1346.24,-356.316 1591.34,-369.971 1687,-352 1703.27,-348.944 1720.33,-343.183 1735.43,-337.102"/>
<polygon fill="green" stroke="green" points="1737.17,-340.17 1745.04,-333.084 1734.47,-333.711 1737.17,-340.17"/>
</g>
<!-- org_liveSense_core&#45;&gt;org_apache_felix_scr -->
<g id="edge12" class="edge"><title>org_liveSense_core&#45;&gt;org_apache_felix_scr</title>
<path fill="none" stroke="green" d="M902.624,-315C1014.58,-315 1126.54,-315 1238.5,-315"/>
<polygon fill="green" stroke="green" points="1238.64,-318.5 1248.64,-315 1238.64,-311.5 1238.64,-318.5"/>
</g>
<!-- org_liveSense_core&#45;&gt;org_ops4j_pax_logging_pax_logging_api -->
<g id="edge13" class="edge"><title>org_liveSense_core&#45;&gt;org_ops4j_pax_logging_pax_logging_api</title>
<path fill="none" stroke="green" d="M902.593,-326.442C1007.64,-342.176 1212.92,-366.938 1387,-352 1426.32,-348.626 1469.25,-341.827 1506.28,-334.967"/>
<polygon fill="green" stroke="green" points="1507.38,-338.322 1516.56,-333.033 1506.08,-331.442 1507.38,-338.322"/>
</g>
<!-- javax_jcr -->
<g id="node7" class="node"><title>javax_jcr</title>
<polygon fill="#3182bd" stroke="black" points="0,-75 0,-111 186,-111 186,-75 0,-75"/>
<text text-anchor="middle" x="93" y="-100.1" font-family="Arial" font-size="8.00">Content Repository for JavaTM Technology API</text>
<polyline fill="none" stroke="black" points="0,-93 186,-93 "/>
<text text-anchor="middle" x="93" y="-82.1" font-family="Arial" font-size="8.00">javax.jcr(2.0)</text>
</g>
<!-- org_liveSense_core&#45;&gt;javax_jcr -->
<g id="edge6" class="edge"><title>org_liveSense_core&#45;&gt;javax_jcr</title>
<path fill="none" stroke="green" d="M763.233,-314.183C587.621,-313.919 138.06,-308.468 93,-260 58.2626,-222.635 71.5674,-157.569 83.0822,-120.979"/>
<polygon fill="green" stroke="green" points="86.5563,-121.624 86.392,-111.03 79.9142,-119.414 86.5563,-121.624"/>
</g>
<!-- org_apache_sling_api -->
<g id="node8" class="node"><title>org_apache_sling_api</title>
<polygon fill="#3182bd" stroke="black" points="861.5,-223 861.5,-259 972.5,-259 972.5,-223 861.5,-223"/>
<text text-anchor="middle" x="917" y="-248.1" font-family="Arial" font-size="8.00">Apache Sling API</text>
<polyline fill="none" stroke="black" points="861.5,-241 972.5,-241 "/>
<text text-anchor="middle" x="917" y="-230.1" font-family="Arial" font-size="8.00">org.apache.sling.api(2.4.2)</text>
</g>
<!-- org_liveSense_core&#45;&gt;org_apache_sling_api -->
<g id="edge7" class="edge"><title>org_liveSense_core&#45;&gt;org_apache_sling_api</title>
<path fill="none" stroke="green" d="M852.907,-296.937C863.708,-287.679 877.233,-276.086 889.072,-265.938"/>
<polygon fill="green" stroke="green" points="891.63,-268.355 896.945,-259.19 887.075,-263.041 891.63,-268.355"/>
</g>
<!-- org_apache_geronimo_specs_geronimo_servlet_3_0_spec -->
<g id="node9" class="node"><title>org_apache_geronimo_specs_geronimo_servlet_3_0_spec</title>
<polygon fill="#3182bd" stroke="black" points="729,-149 729,-185 959,-185 959,-149 729,-149"/>
<text text-anchor="middle" x="844" y="-174.1" font-family="Arial" font-size="8.00">Servlet 3.0</text>
<polyline fill="none" stroke="black" points="729,-167 959,-167 "/>
<text text-anchor="middle" x="844" y="-156.1" font-family="Arial" font-size="8.00">org.apache.geronimo.specs.geronimo&#45;servlet_3.0_spec(1.0)</text>
</g>
<!-- org_liveSense_core&#45;&gt;org_apache_geronimo_specs_geronimo_servlet_3_0_spec -->
<g id="edge9" class="edge"><title>org_liveSense_core&#45;&gt;org_apache_geronimo_specs_geronimo_servlet_3_0_spec</title>
<path fill="none" stroke="green" d="M834.283,-296.966C836.161,-272.045 839.677,-225.374 841.925,-195.537"/>
<polygon fill="green" stroke="green" points="845.429,-195.613 842.691,-185.378 838.449,-195.087 845.429,-195.613"/>
</g>
<!-- org_apache_commons_lang -->
<g id="node10" class="node"><title>org_apache_commons_lang</title>
<polygon fill="#3182bd" stroke="black" points="321.5,-223 321.5,-259 448.5,-259 448.5,-223 321.5,-223"/>
<text text-anchor="middle" x="385" y="-248.1" font-family="Arial" font-size="8.00">Commons Lang</text>
<polyline fill="none" stroke="black" points="321.5,-241 448.5,-241 "/>
<text text-anchor="middle" x="385" y="-230.1" font-family="Arial" font-size="8.00">org.apache.commons.lang(2.6)</text>
</g>
<!-- org_liveSense_core&#45;&gt;org_apache_commons_lang -->
<g id="edge10" class="edge"><title>org_liveSense_core&#45;&gt;org_apache_commons_lang</title>
<path fill="none" stroke="green" d="M763.341,-306.161C689.81,-297.398 570.38,-281.779 458.621,-260.224"/>
<polygon fill="green" stroke="green" points="459.009,-256.733 448.524,-258.256 457.67,-263.604 459.009,-256.733"/>
</g>
<!-- org_apache_commons_beanutils -->
<g id="node11" class="node"><title>org_apache_commons_beanutils</title>
<polygon fill="#3182bd" stroke="black" points="1029.5,-223 1029.5,-259 1180.5,-259 1180.5,-223 1029.5,-223"/>
<text text-anchor="middle" x="1105" y="-248.1" font-family="Arial" font-size="8.00">Commons BeanUtils</text>
<polyline fill="none" stroke="black" points="1029.5,-241 1180.5,-241 "/>
<text text-anchor="middle" x="1105" y="-230.1" font-family="Arial" font-size="8.00">org.apache.commons.beanutils(1.8.3)</text>
</g>
<!-- org_liveSense_core&#45;&gt;org_apache_commons_beanutils -->
<g id="edge11" class="edge"><title>org_liveSense_core&#45;&gt;org_apache_commons_beanutils</title>
<path fill="none" stroke="green" d="M897.46,-296.937C937.456,-286.35 988.991,-272.708 1030.7,-261.667"/>
<polygon fill="green" stroke="green" points="1031.76,-265.008 1040.53,-259.065 1029.97,-258.241 1031.76,-265.008"/>
</g>
<!-- org_apache_servicemix_bundles_guava -->
<g id="node12" class="node"><title>org_apache_servicemix_bundles_guava</title>
<polygon fill="#3182bd" stroke="black" points="466.5,-223 466.5,-259 651.5,-259 651.5,-223 466.5,-223"/>
<text text-anchor="middle" x="559" y="-248.1" font-family="Arial" font-size="8.00">Apache ServiceMix :: Bundles :: guava</text>
<polyline fill="none" stroke="black" points="466.5,-241 651.5,-241 "/>
<text text-anchor="middle" x="559" y="-230.1" font-family="Arial" font-size="8.00">org.apache.servicemix.bundles.guava(11.0.0.1)</text>
</g>
<!-- org_liveSense_core&#45;&gt;org_apache_servicemix_bundles_guava -->
<g id="edge14" class="edge"><title>org_liveSense_core&#45;&gt;org_apache_servicemix_bundles_guava</title>
<path fill="none" stroke="green" d="M768.066,-296.937C727.776,-286.35 675.862,-272.708 633.846,-261.667"/>
<polygon fill="green" stroke="green" points="634.504,-258.222 623.942,-259.065 632.724,-264.992 634.504,-258.222"/>
</g>
<!-- net_entropysoft_transmorph -->
<g id="node13" class="node"><title>net_entropysoft_transmorph</title>
<polygon fill="#3182bd" stroke="black" points="669.5,-223 669.5,-259 804.5,-259 804.5,-223 669.5,-223"/>
<text text-anchor="middle" x="737" y="-248.1" font-family="Arial" font-size="8.00">Transmorph</text>
<polyline fill="none" stroke="black" points="669.5,-241 804.5,-241 "/>
<text text-anchor="middle" x="737" y="-230.1" font-family="Arial" font-size="8.00">net.entropysoft.transmorph(3.1.1)</text>
</g>
<!-- org_liveSense_core&#45;&gt;net_entropysoft_transmorph -->
<g id="edge15" class="edge"><title>org_liveSense_core&#45;&gt;net_entropysoft_transmorph</title>
<path fill="none" stroke="green" d="M810.249,-296.937C797.668,-287.501 781.852,-275.639 768.139,-265.354"/>
<polygon fill="green" stroke="green" points="770.02,-262.39 759.92,-259.19 765.82,-267.99 770.02,-262.39"/>
</g>
<!-- org_apache_jackrabbit_jackrabbit_jcr_commons -->
<g id="node14" class="node"><title>org_apache_jackrabbit_jackrabbit_jcr_commons</title>
<polygon fill="#3182bd" stroke="black" points="102.5,-223 102.5,-259 303.5,-259 303.5,-223 102.5,-223"/>
<text text-anchor="middle" x="203" y="-248.1" font-family="Arial" font-size="8.00">Jackrabbit JCR Commons</text>
<polyline fill="none" stroke="black" points="102.5,-241 303.5,-241 "/>
<text text-anchor="middle" x="203" y="-230.1" font-family="Arial" font-size="8.00">org.apache.jackrabbit.jackrabbit&#45;jcr&#45;commons(2.4.2)</text>
</g>
<!-- org_liveSense_core&#45;&gt;org_apache_jackrabbit_jackrabbit_jcr_commons -->
<g id="edge16" class="edge"><title>org_liveSense_core&#45;&gt;org_apache_jackrabbit_jackrabbit_jcr_commons</title>
<path fill="none" stroke="green" d="M763.317,-308.125C665.192,-299.553 480.495,-282.321 313.584,-260.175"/>
<polygon fill="green" stroke="green" points="314.007,-256.7 303.632,-258.845 313.08,-263.638 314.007,-256.7"/>
</g>
<!-- org_apache_felix_scr&#45;&gt;org_ops4j_pax_logging_pax_logging_api -->
<g id="edge27" class="edge"><title>org_apache_felix_scr&#45;&gt;org_ops4j_pax_logging_pax_logging_api</title>
<path fill="none" stroke="#3182bd" d="M1387.09,-315C1425.95,-315 1464.82,-315 1503.68,-315"/>
<polygon fill="#3182bd" stroke="#3182bd" points="1504.1,-318.5 1514.1,-315 1504.1,-311.5 1504.1,-318.5"/>
</g>
<!-- org_apache_felix_configadmin -->
<g id="node15" class="node"><title>org_apache_felix_configadmin</title>
<polygon fill="#9ecae1" stroke="black" points="1463,-1 1463,-37 1629,-37 1629,-1 1463,-1"/>
<text text-anchor="middle" x="1546" y="-26.1" font-family="Arial" font-size="8.00">Apache Felix Configuration Admin Service</text>
<polyline fill="none" stroke="black" points="1463,-19 1629,-19 "/>
<text text-anchor="middle" x="1546" y="-8.1" font-family="Arial" font-size="8.00">org.apache.felix.configadmin(1.6.0)</text>
</g>
<!-- org_apache_felix_scr&#45;&gt;org_apache_felix_configadmin -->
<g id="edge25" class="edge"><title>org_apache_felix_scr&#45;&gt;org_apache_felix_configadmin</title>
<path fill="none" stroke="#3182bd" d="M1248.67,-311.096C1170.2,-306.219 1049.43,-293.37 1020,-260 987.053,-222.644 994.247,-192.809 1016,-148 1039.22,-100.168 1060.93,-94.4636 1110,-74 1169.99,-48.9851 1343.34,-33.3437 1452.53,-25.682"/>
<polygon fill="#3182bd" stroke="#3182bd" points="1452.83,-29.1699 1462.56,-24.9878 1452.35,-22.1866 1452.83,-29.1699"/>
</g>
<!-- org_apache_felix_metatype -->
<g id="node16" class="node"><title>org_apache_felix_metatype</title>
<polygon fill="#9ecae1" stroke="black" points="1928.5,-1 1928.5,-37 2059.5,-37 2059.5,-1 1928.5,-1"/>
<text text-anchor="middle" x="1994" y="-26.1" font-family="Arial" font-size="8.00">Apache Felix Metatype Service</text>
<polyline fill="none" stroke="black" points="1928.5,-19 2059.5,-19 "/>
<text text-anchor="middle" x="1994" y="-8.1" font-family="Arial" font-size="8.00">org.apache.felix.metatype(1.0.6)</text>
</g>
<!-- org_apache_felix_scr&#45;&gt;org_apache_felix_metatype -->
<g id="edge26" class="edge"><title>org_apache_felix_scr&#45;&gt;org_apache_felix_metatype</title>
<path fill="none" stroke="#3182bd" d="M1300.94,-296.787C1260.24,-253.72 1165.39,-140.037 1228,-74 1279.75,-19.4173 1829.37,-47.4001 1904,-38 1908.69,-37.4088 1913.51,-36.7127 1918.35,-35.9439"/>
<polygon fill="#3182bd" stroke="#3182bd" points="1919.03,-39.3795 1928.31,-34.2741 1917.87,-32.4758 1919.03,-39.3795"/>
</g>
<!-- org_apache_karaf_shell_console -->
<g id="node18" class="node"><title>org_apache_karaf_shell_console</title>
<polygon fill="#9ecae1" stroke="black" points="1455,-223 1455,-259 1621,-259 1621,-223 1455,-223"/>
<text text-anchor="middle" x="1538" y="-248.1" font-family="Arial" font-size="8.00">Apache Karaf :: Shell :: Console</text>
<polyline fill="none" stroke="black" points="1455,-241 1621,-241 "/>
<text text-anchor="middle" x="1538" y="-230.1" font-family="Arial" font-size="8.00">org.apache.karaf.shell.console(3.0.0.RC1)</text>
</g>
<!-- org_apache_felix_scr&#45;&gt;org_apache_karaf_shell_console -->
<g id="edge24" class="edge"><title>org_apache_felix_scr&#45;&gt;org_apache_karaf_shell_console</title>
<path fill="none" stroke="#3182bd" d="M1370.14,-296.937C1401.94,-286.529 1442.76,-273.168 1476.19,-262.229"/>
<polygon fill="#3182bd" stroke="#3182bd" points="1477.44,-265.502 1485.86,-259.065 1475.26,-258.849 1477.44,-265.502"/>
</g>
<!-- org_ops4j_pax_logging_pax_logging_api&#45;&gt;org_apache_felix_eventadmin -->
<g id="edge30" class="edge"><title>org_ops4j_pax_logging_pax_logging_api&#45;&gt;org_apache_felix_eventadmin</title>
<path fill="none" stroke="#9ecae1" d="M1673.07,-296.986C1741.62,-278.758 1844.71,-244.275 1918,-186 1940.9,-167.79 1959.73,-139.863 1973.27,-119.554"/>
<polygon fill="#9ecae1" stroke="#9ecae1" points="1976.28,-121.352 1978.93,-111.094 1970.46,-117.458 1976.28,-121.352"/>
</g>
<!-- org_apache_felix_eventadmin&#45;&gt;org_ops4j_pax_logging_pax_logging_api -->
<g id="edge17" class="edge"><title>org_apache_felix_eventadmin&#45;&gt;org_ops4j_pax_logging_pax_logging_api</title>
<path fill="none" stroke="#3182bd" d="M1991.66,-111.094C1983.21,-131.385 1962.29,-165.095 1936,-186 1866,-241.657 1768.82,-275.612 1697.1,-294.43"/>
<polygon fill="#3182bd" stroke="#3182bd" points="1695.97,-291.107 1687.15,-296.986 1697.71,-297.887 1695.97,-291.107"/>
</g>
<!-- org_apache_felix_eventadmin&#45;&gt;org_apache_felix_configadmin -->
<g id="edge18" class="edge"><title>org_apache_felix_eventadmin&#45;&gt;org_apache_felix_configadmin</title>
<path fill="none" stroke="#3182bd" d="M1923.85,-75.7147C1920.86,-75.117 1917.9,-74.5424 1915,-74 1821.7,-56.5711 1714.24,-41.3948 1639.44,-31.6069"/>
<polygon fill="#3182bd" stroke="#3182bd" points="1639.48,-28.0821 1629.11,-30.2619 1638.58,-35.0235 1639.48,-28.0821"/>
</g>
<!-- org_apache_felix_eventadmin&#45;&gt;org_apache_felix_metatype -->
<g id="edge19" class="edge"><title>org_apache_felix_eventadmin&#45;&gt;org_apache_felix_metatype</title>
<path fill="none" stroke="#3182bd" d="M1994,-74.937C1994,-66.8072 1994,-56.8761 1994,-47.7047"/>
<polygon fill="#3182bd" stroke="#3182bd" points="1997.5,-47.4406 1994,-37.4407 1990.5,-47.4407 1997.5,-47.4406"/>
</g>
<!-- org_apache_sling_api&#45;&gt;org_ops4j_pax_logging_pax_logging_api -->
<g id="edge20" class="edge"><title>org_apache_sling_api&#45;&gt;org_ops4j_pax_logging_pax_logging_api</title>
<path fill="none" stroke="#3182bd" d="M972.735,-252.582C988.019,-255.254 1004.62,-257.944 1020,-260 1066.59,-266.226 1351.04,-291.811 1503.95,-305.41"/>
<polygon fill="#3182bd" stroke="#3182bd" points="1504,-308.928 1514.27,-306.328 1504.62,-301.956 1504,-308.928"/>
</g>
<!-- org_apache_sling_api&#45;&gt;org_apache_geronimo_specs_geronimo_servlet_3_0_spec -->
<g id="edge21" class="edge"><title>org_apache_sling_api&#45;&gt;org_apache_geronimo_specs_geronimo_servlet_3_0_spec</title>
<path fill="none" stroke="#3182bd" d="M899.7,-222.937C890.404,-213.768 878.785,-202.308 868.568,-192.231"/>
<polygon fill="#3182bd" stroke="#3182bd" points="871.006,-189.72 861.429,-185.19 866.091,-194.704 871.006,-189.72"/>
</g>
<!-- org_apache_commons_beanutils&#45;&gt;org_ops4j_pax_logging_pax_logging_api -->
<g id="edge22" class="edge"><title>org_apache_commons_beanutils&#45;&gt;org_ops4j_pax_logging_pax_logging_api</title>
<path fill="none" stroke="#3182bd" d="M1180.58,-252.971C1267.23,-265.549 1409.46,-286.196 1504.16,-299.943"/>
<polygon fill="#3182bd" stroke="#3182bd" points="1503.92,-303.444 1514.32,-301.417 1504.93,-296.517 1503.92,-303.444"/>
</g>
<!-- org_apache_commons_collections -->
<g id="node17" class="node"><title>org_apache_commons_collections</title>
<polygon fill="#9ecae1" stroke="black" points="1025,-149 1025,-185 1181,-185 1181,-149 1025,-149"/>
<text text-anchor="middle" x="1103" y="-174.1" font-family="Arial" font-size="8.00">Commons Collections</text>
<polyline fill="none" stroke="black" points="1025,-167 1181,-167 "/>
<text text-anchor="middle" x="1103" y="-156.1" font-family="Arial" font-size="8.00">org.apache.commons.collections(3.2.1)</text>
</g>
<!-- org_apache_commons_beanutils&#45;&gt;org_apache_commons_collections -->
<g id="edge23" class="edge"><title>org_apache_commons_beanutils&#45;&gt;org_apache_commons_collections</title>
<path fill="none" stroke="#3182bd" d="M1104.53,-222.937C1104.3,-214.807 1104.02,-204.876 1103.77,-195.705"/>
<polygon fill="#3182bd" stroke="#3182bd" points="1107.26,-195.34 1103.48,-185.441 1100.26,-195.534 1107.26,-195.34"/>
</g>
<!-- org_apache_jackrabbit_jackrabbit_jcr_commons&#45;&gt;javax_jcr -->
<g id="edge28" class="edge"><title>org_apache_jackrabbit_jackrabbit_jcr_commons&#45;&gt;javax_jcr</title>
<path fill="none" stroke="#3182bd" d="M172.998,-222.782C158.752,-213.396 142.393,-200.695 131,-186 115.921,-166.551 105.86,-140.272 99.8993,-120.779"/>
<polygon fill="#3182bd" stroke="#3182bd" points="103.214,-119.643 97.0777,-111.006 96.4889,-121.584 103.214,-119.643"/>
</g>
<!-- org_apache_jackrabbit_jackrabbit_api -->
<g id="node19" class="node"><title>org_apache_jackrabbit_jackrabbit_api</title>
<polygon fill="#9ecae1" stroke="black" points="140,-149 140,-185 306,-185 306,-149 140,-149"/>
<text text-anchor="middle" x="223" y="-174.1" font-family="Arial" font-size="8.00">Apache Jackrabbit API</text>
<polyline fill="none" stroke="black" points="140,-167 306,-167 "/>
<text text-anchor="middle" x="223" y="-156.1" font-family="Arial" font-size="8.00">org.apache.jackrabbit.jackrabbit&#45;api(2.4.2)</text>
</g>
<!-- org_apache_jackrabbit_jackrabbit_jcr_commons&#45;&gt;org_apache_jackrabbit_jackrabbit_api -->
<g id="edge29" class="edge"><title>org_apache_jackrabbit_jackrabbit_jcr_commons&#45;&gt;org_apache_jackrabbit_jackrabbit_api</title>
<path fill="none" stroke="#3182bd" d="M207.74,-222.937C210.047,-214.63 212.877,-204.444 215.47,-195.108"/>
<polygon fill="#3182bd" stroke="#3182bd" points="218.851,-196.013 218.155,-185.441 212.107,-194.139 218.851,-196.013"/>
</g>
<!-- org_apache_felix_configadmin&#45;&gt;org_ops4j_pax_logging_pax_logging_api -->
<g id="edge31" class="edge"><title>org_apache_felix_configadmin&#45;&gt;org_ops4j_pax_logging_pax_logging_api</title>
<path fill="none" stroke="#9ecae1" d="M1545.31,-37.0501C1545.39,-56.9888 1548.33,-90.0532 1565,-112 1586.16,-139.856 1614.25,-119.832 1635,-148 1654.8,-174.886 1645.1,-188.734 1648,-222 1649.47,-238.825 1653.92,-244.182 1648,-260 1643.93,-270.873 1636.57,-281 1628.87,-289.479"/>
<polygon fill="#9ecae1" stroke="#9ecae1" points="1626.24,-287.164 1621.78,-296.776 1631.26,-292.041 1626.24,-287.164"/>
</g>
<!-- org_apache_felix_metatype&#45;&gt;org_ops4j_pax_logging_pax_logging_api -->
<g id="edge32" class="edge"><title>org_apache_felix_metatype&#45;&gt;org_ops4j_pax_logging_pax_logging_api</title>
<path fill="none" stroke="#9ecae1" d="M2047.02,-37.0834C2064.13,-45.3909 2081.18,-57.301 2091,-74 2117.86,-119.698 2087.27,-148.302 2050,-186 1936.44,-300.88 1861.27,-268.922 1697.59,-295.791"/>
<polygon fill="#9ecae1" stroke="#9ecae1" points="1696.98,-292.345 1687.7,-297.469 1698.15,-299.247 1696.98,-292.345"/>
</g>
<!-- org_apache_karaf_shell_console&#45;&gt;org_ops4j_pax_logging_pax_logging_api -->
<g id="edge38" class="edge"><title>org_apache_karaf_shell_console&#45;&gt;org_ops4j_pax_logging_pax_logging_api</title>
<path fill="none" stroke="#9ecae1" d="M1553.26,-259.441C1561.12,-268.426 1570.84,-279.535 1579.46,-289.379"/>
<polygon fill="#9ecae1" stroke="#9ecae1" points="1576.85,-291.716 1586.07,-296.937 1582.12,-287.106 1576.85,-291.716"/>
</g>
<!-- org_apache_karaf_shell_console&#45;&gt;org_apache_felix_eventadmin -->
<g id="edge35" class="edge"><title>org_apache_karaf_shell_console&#45;&gt;org_apache_felix_eventadmin</title>
<path fill="none" stroke="#9ecae1" d="M1621.1,-232.705C1709.73,-223.967 1843.6,-207.743 1890,-186 1907.8,-177.657 1945.15,-142.591 1969.9,-118.246"/>
<polygon fill="#9ecae1" stroke="#9ecae1" points="1972.49,-120.6 1977.14,-111.077 1967.57,-115.625 1972.49,-120.6"/>
</g>
<!-- org_apache_aries_blueprint_api -->
<g id="node20" class="node"><title>org_apache_aries_blueprint_api</title>
<polygon fill="#deebf7" stroke="black" points="1372.5,-75 1372.5,-111 1517.5,-111 1517.5,-75 1372.5,-75"/>
<text text-anchor="middle" x="1445" y="-100.1" font-family="Arial" font-size="8.00">Apache Aries Blueprint API</text>
<polyline fill="none" stroke="black" points="1372.5,-93 1517.5,-93 "/>
<text text-anchor="middle" x="1445" y="-82.1" font-family="Arial" font-size="8.00">org.apache.aries.blueprint.api(1.0.0)</text>
</g>
<!-- org_apache_karaf_shell_console&#45;&gt;org_apache_aries_blueprint_api -->
<g id="edge33" class="edge"><title>org_apache_karaf_shell_console&#45;&gt;org_apache_aries_blueprint_api</title>
<path fill="none" stroke="#9ecae1" d="M1571.13,-222.977C1584.89,-214.003 1599.4,-201.589 1607,-186 1614.4,-170.817 1616.88,-161.701 1607,-148 1596.86,-133.931 1562.15,-121.442 1527.45,-112.028"/>
<polygon fill="#9ecae1" stroke="#9ecae1" points="1528.24,-108.618 1517.68,-109.456 1526.46,-115.387 1528.24,-108.618"/>
</g>
<!-- jline -->
<g id="node21" class="node"><title>jline</title>
<polygon fill="#deebf7" stroke="black" points="1373,-149 1373,-185 1427,-185 1427,-149 1373,-149"/>
<text text-anchor="middle" x="1400" y="-174.1" font-family="Arial" font-size="8.00">JLine</text>
<polyline fill="none" stroke="black" points="1373,-167 1427,-167 "/>
<text text-anchor="middle" x="1400" y="-156.1" font-family="Arial" font-size="8.00">jline(2.9.0)</text>
</g>
<!-- org_apache_karaf_shell_console&#45;&gt;jline -->
<g id="edge34" class="edge"><title>org_apache_karaf_shell_console&#45;&gt;jline</title>
<path fill="none" stroke="#9ecae1" d="M1505.3,-222.937C1484.61,-212.142 1457.83,-198.172 1436.46,-187.021"/>
<polygon fill="#9ecae1" stroke="#9ecae1" points="1437.84,-183.797 1427.36,-182.275 1434.61,-190.003 1437.84,-183.797"/>
</g>
<!-- org_apache_aries_blueprint_core -->
<g id="node22" class="node"><title>org_apache_aries_blueprint_core</title>
<polygon fill="#deebf7" stroke="black" points="1731,-149 1731,-185 1881,-185 1881,-149 1731,-149"/>
<text text-anchor="middle" x="1806" y="-174.1" font-family="Arial" font-size="8.00">Apache Aries Blueprint Core</text>
<polyline fill="none" stroke="black" points="1731,-167 1881,-167 "/>
<text text-anchor="middle" x="1806" y="-156.1" font-family="Arial" font-size="8.00">org.apache.aries.blueprint.core(1.1.0)</text>
</g>
<!-- org_apache_karaf_shell_console&#45;&gt;org_apache_aries_blueprint_core -->
<g id="edge36" class="edge"><title>org_apache_karaf_shell_console&#45;&gt;org_apache_aries_blueprint_core</title>
<path fill="none" stroke="#9ecae1" d="M1601.51,-222.937C1640.92,-212.35 1691.7,-198.708 1732.79,-187.667"/>
<polygon fill="#9ecae1" stroke="#9ecae1" points="1733.73,-191.04 1742.48,-185.065 1731.91,-184.28 1733.73,-191.04"/>
</g>
<!-- org_apache_sshd_core -->
<g id="node23" class="node"><title>org_apache_sshd_core</title>
<polygon fill="#deebf7" stroke="black" points="1237.5,-149 1237.5,-185 1354.5,-185 1354.5,-149 1237.5,-149"/>
<text text-anchor="middle" x="1296" y="-174.1" font-family="Arial" font-size="8.00">Apache Mina SSHD :: Core</text>
<polyline fill="none" stroke="black" points="1237.5,-167 1354.5,-167 "/>
<text text-anchor="middle" x="1296" y="-156.1" font-family="Arial" font-size="8.00">org.apache.sshd.core(0.8.0)</text>
</g>
<!-- org_apache_karaf_shell_console&#45;&gt;org_apache_sshd_core -->
<g id="edge37" class="edge"><title>org_apache_karaf_shell_console&#45;&gt;org_apache_sshd_core</title>
<path fill="none" stroke="#9ecae1" d="M1480.65,-222.937C1445.37,-212.439 1399.99,-198.938 1363.05,-187.948"/>
<polygon fill="#9ecae1" stroke="#9ecae1" points="1363.94,-184.562 1353.36,-185.065 1361.94,-191.272 1363.94,-184.562"/>
</g>
<!-- org_apache_karaf_jaas_boot -->
<g id="node24" class="node"><title>org_apache_karaf_jaas_boot</title>
<polygon fill="#deebf7" stroke="black" points="1445.5,-149 1445.5,-185 1598.5,-185 1598.5,-149 1445.5,-149"/>
<text text-anchor="middle" x="1522" y="-174.1" font-family="Arial" font-size="8.00">Apache Karaf :: JAAS :: Boot</text>
<polyline fill="none" stroke="black" points="1445.5,-167 1598.5,-167 "/>
<text text-anchor="middle" x="1522" y="-156.1" font-family="Arial" font-size="8.00">org.apache.karaf.jaas.boot(3.0.0.RC1)</text>
</g>
<!-- org_apache_karaf_shell_console&#45;&gt;org_apache_karaf_jaas_boot -->
<g id="edge39" class="edge"><title>org_apache_karaf_shell_console&#45;&gt;org_apache_karaf_jaas_boot</title>
<path fill="none" stroke="#9ecae1" d="M1534.21,-222.937C1532.38,-214.719 1530.15,-204.66 1528.09,-195.406"/>
<polygon fill="#9ecae1" stroke="#9ecae1" points="1531.46,-194.443 1525.88,-185.441 1524.63,-195.962 1531.46,-194.443"/>
</g>
<!-- org_apache_jackrabbit_jackrabbit_api&#45;&gt;javax_jcr -->
<g id="edge40" class="edge"><title>org_apache_jackrabbit_jackrabbit_api&#45;&gt;javax_jcr</title>
<path fill="none" stroke="#9ecae1" d="M192.192,-148.937C174.432,-139.101 151.91,-126.627 132.818,-116.053"/>
<polygon fill="#9ecae1" stroke="#9ecae1" points="134.481,-112.973 124.038,-111.19 131.09,-119.097 134.481,-112.973"/>
</g>
<!-- org_apache_geronimo_specs_geronimo_jta_1_1_spec -->
<g id="node25" class="node"><title>org_apache_geronimo_specs_geronimo_jta_1_1_spec</title>
<polygon fill="#deebf7" stroke="black" points="204,-75 204,-111 426,-111 426,-75 204,-75"/>
<text text-anchor="middle" x="315" y="-100.1" font-family="Arial" font-size="8.00">geronimo&#45;jta_1.1_spec</text>
<polyline fill="none" stroke="black" points="204,-93 426,-93 "/>
<text text-anchor="middle" x="315" y="-82.1" font-family="Arial" font-size="8.00">org.apache.geronimo.specs.geronimo&#45;jta_1.1_spec(1.1.1)</text>
</g>
<!-- org_apache_jackrabbit_jackrabbit_api&#45;&gt;org_apache_geronimo_specs_geronimo_jta_1_1_spec -->
<g id="edge41" class="edge"><title>org_apache_jackrabbit_jackrabbit_api&#45;&gt;org_apache_geronimo_specs_geronimo_jta_1_1_spec</title>
<path fill="none" stroke="#9ecae1" d="M244.803,-148.937C256.86,-139.501 272.017,-127.639 285.159,-117.354"/>
<polygon fill="#9ecae1" stroke="#9ecae1" points="287.317,-120.109 293.035,-111.19 283.003,-114.597 287.317,-120.109"/>
</g>
<!-- org_apache_aries_blueprint_core&#45;&gt;org_ops4j_pax_logging_pax_logging_api -->
<g id="edge45" class="edge"><title>org_apache_aries_blueprint_core&#45;&gt;org_ops4j_pax_logging_pax_logging_api</title>
<path fill="none" stroke="#deebf7" d="M1792.75,-185.106C1776.58,-205.098 1747.59,-238.214 1717,-260 1698.65,-273.071 1676.62,-284.262 1656.72,-293.01"/>
<polygon fill="#deebf7" stroke="#deebf7" points="1655.27,-289.827 1647.45,-296.98 1658.02,-296.261 1655.27,-289.827"/>
</g>
<!-- org_apache_aries_blueprint_core&#45;&gt;org_apache_felix_eventadmin -->
<g id="edge44" class="edge"><title>org_apache_aries_blueprint_core&#45;&gt;org_apache_felix_eventadmin</title>
<path fill="none" stroke="#deebf7" d="M1850.55,-148.937C1877.38,-138.663 1911.72,-125.511 1940.07,-114.652"/>
<polygon fill="#deebf7" stroke="#deebf7" points="1941.35,-117.91 1949.44,-111.065 1938.85,-111.373 1941.35,-117.91"/>
</g>
<!-- org_apache_aries_blueprint_core&#45;&gt;org_apache_aries_blueprint_api -->
<g id="edge43" class="edge"><title>org_apache_aries_blueprint_core&#45;&gt;org_apache_aries_blueprint_api</title>
<path fill="none" stroke="#deebf7" d="M1730.76,-150.994C1671.45,-139.165 1588.84,-122.687 1527.68,-110.491"/>
<polygon fill="#deebf7" stroke="#deebf7" points="1528.17,-107.019 1517.68,-108.495 1526.8,-113.883 1528.17,-107.019"/>
</g>
<!-- org_apache_aries_proxy_api -->
<g id="node26" class="node"><title>org_apache_aries_proxy_api</title>
<polygon fill="#bdbdbd" stroke="black" points="1772,-75 1772,-111 1906,-111 1906,-75 1772,-75"/>
<text text-anchor="middle" x="1839" y="-100.1" font-family="Arial" font-size="8.00">Apache Aries Proxy API</text>
<polyline fill="none" stroke="black" points="1772,-93 1906,-93 "/>
<text text-anchor="middle" x="1839" y="-82.1" font-family="Arial" font-size="8.00">org.apache.aries.proxy.api(1.0.0)</text>
</g>
<!-- org_apache_aries_blueprint_core&#45;&gt;org_apache_aries_proxy_api -->
<g id="edge42" class="edge"><title>org_apache_aries_blueprint_core&#45;&gt;org_apache_aries_proxy_api</title>
<path fill="none" stroke="#deebf7" d="M1813.82,-148.937C1817.67,-140.542 1822.4,-130.227 1826.71,-120.81"/>
<polygon fill="#deebf7" stroke="#deebf7" points="1830.02,-121.99 1831.01,-111.441 1823.66,-119.073 1830.02,-121.99"/>
</g>
<!-- org_apache_aries_util -->
<g id="node27" class="node"><title>org_apache_aries_util</title>
<polygon fill="#bdbdbd" stroke="black" points="1783,-1 1783,-37 1895,-37 1895,-1 1783,-1"/>
<text text-anchor="middle" x="1839" y="-26.1" font-family="Arial" font-size="8.00">Apache Aries Util</text>
<polyline fill="none" stroke="black" points="1783,-19 1895,-19 "/>
<text text-anchor="middle" x="1839" y="-8.1" font-family="Arial" font-size="8.00">org.apache.aries.util(1.1.0)</text>
</g>
<!-- org_apache_aries_blueprint_core&#45;&gt;org_apache_aries_util -->
<g id="edge46" class="edge"><title>org_apache_aries_blueprint_core&#45;&gt;org_apache_aries_util</title>
<path fill="none" stroke="#deebf7" d="M1787.4,-148.924C1778.14,-139.136 1767.9,-126.028 1763,-112 1757.43,-96.0569 1755.25,-89.0074 1763,-74 1769.57,-61.269 1780.68,-50.886 1792.41,-42.7493"/>
<polygon fill="#deebf7" stroke="#deebf7" points="1794.49,-45.5747 1801.01,-37.2201 1790.7,-39.6881 1794.49,-45.5747"/>
</g>
<!-- org_apache_aries_quiesce_api -->
<g id="node28" class="node"><title>org_apache_aries_quiesce_api</title>
<polygon fill="#bdbdbd" stroke="black" points="1574,-75 1574,-111 1716,-111 1716,-75 1574,-75"/>
<text text-anchor="middle" x="1645" y="-100.1" font-family="Arial" font-size="8.00">Apache Aries Quiesce API</text>
<polyline fill="none" stroke="black" points="1574,-93 1716,-93 "/>
<text text-anchor="middle" x="1645" y="-82.1" font-family="Arial" font-size="8.00">org.apache.aries.quiesce.api(1.0.0)</text>
</g>
<!-- org_apache_aries_blueprint_core&#45;&gt;org_apache_aries_quiesce_api -->
<g id="edge47" class="edge"><title>org_apache_aries_blueprint_core&#45;&gt;org_apache_aries_quiesce_api</title>
<path fill="none" stroke="#deebf7" d="M1767.85,-148.937C1745.27,-138.841 1716.48,-125.968 1692.45,-115.221"/>
<polygon fill="#deebf7" stroke="#deebf7" points="1693.72,-111.953 1683.16,-111.065 1690.86,-118.343 1693.72,-111.953"/>
</g>
<!-- org_apache_sshd_core&#45;&gt;org_ops4j_pax_logging_pax_logging_api -->
<g id="edge48" class="edge"><title>org_apache_sshd_core&#45;&gt;org_ops4j_pax_logging_pax_logging_api</title>
<path fill="none" stroke="#deebf7" d="M1320.29,-185.168C1349.22,-205.068 1399.49,-237.949 1446,-260 1473.76,-273.158 1505.62,-284.809 1533.21,-293.89"/>
<polygon fill="#deebf7" stroke="#deebf7" points="1532.18,-297.237 1542.77,-296.993 1534.34,-290.578 1532.18,-297.237"/>
</g>
<!-- org_apache_mina_core -->
<g id="node29" class="node"><title>org_apache_mina_core</title>
<polygon fill="#bdbdbd" stroke="black" points="1237.5,-75 1237.5,-111 1354.5,-111 1354.5,-75 1237.5,-75"/>
<text text-anchor="middle" x="1296" y="-100.1" font-family="Arial" font-size="8.00">Apache MINA Core</text>
<polyline fill="none" stroke="black" points="1237.5,-93 1354.5,-93 "/>
<text text-anchor="middle" x="1296" y="-82.1" font-family="Arial" font-size="8.00">org.apache.mina.core(2.0.7)</text>
</g>
<!-- org_apache_sshd_core&#45;&gt;org_apache_mina_core -->
<g id="edge49" class="edge"><title>org_apache_sshd_core&#45;&gt;org_apache_mina_core</title>
<path fill="none" stroke="#deebf7" d="M1296,-148.937C1296,-140.807 1296,-130.876 1296,-121.705"/>
<polygon fill="#deebf7" stroke="#deebf7" points="1299.5,-121.441 1296,-111.441 1292.5,-121.441 1299.5,-121.441"/>
</g>
<!-- bcprov -->
<g id="node30" class="node"><title>bcprov</title>
<polygon fill="#bdbdbd" stroke="black" points="1119.5,-75 1119.5,-111 1180.5,-111 1180.5,-75 1119.5,-75"/>
<text text-anchor="middle" x="1150" y="-100.1" font-family="Arial" font-size="8.00">bcprov</text>
<polyline fill="none" stroke="black" points="1119.5,-93 1180.5,-93 "/>
<text text-anchor="middle" x="1150" y="-82.1" font-family="Arial" font-size="8.00">bcprov(1.46)</text>
</g>
<!-- org_apache_sshd_core&#45;&gt;bcprov -->
<g id="edge50" class="edge"><title>org_apache_sshd_core&#45;&gt;bcprov</title>
<path fill="none" stroke="#deebf7" d="M1261.4,-148.937C1240,-138.385 1212.45,-124.798 1190.1,-113.777"/>
<polygon fill="#deebf7" stroke="#deebf7" points="1191.39,-110.511 1180.88,-109.227 1188.3,-116.789 1191.39,-110.511"/>
</g>
<!-- org_apache_aries_proxy_api&#45;&gt;org_apache_aries_util -->
<g id="edge51" class="edge"><title>org_apache_aries_proxy_api&#45;&gt;org_apache_aries_util</title>
<path fill="none" stroke="#bdbdbd" d="M1839,-74.937C1839,-66.8072 1839,-56.8761 1839,-47.7047"/>
<polygon fill="#bdbdbd" stroke="#bdbdbd" points="1842.5,-47.4406 1839,-37.4407 1835.5,-47.4407 1842.5,-47.4406"/>
</g>
<!-- org_apache_aries_util&#45;&gt;org_ops4j_pax_logging_pax_logging_api -->
<g id="edge54" class="edge"><title>org_apache_aries_util&#45;&gt;org_ops4j_pax_logging_pax_logging_api</title>
<path fill="none" stroke="#bdbdbd" d="M1895.13,-32.7313C1964.14,-48.4142 2072.29,-73.1117 2073,-74 2083.51,-87.2169 2080.78,-97.0075 2073,-112 2019.42,-215.306 1964.28,-214.902 1857,-260 1842.01,-266.3 1763.74,-282.439 1697.64,-295.444"/>
<polygon fill="#bdbdbd" stroke="#bdbdbd" points="1696.71,-292.06 1687.57,-297.42 1698.06,-298.929 1696.71,-292.06"/>
</g>
<!-- org_apache_mina_core&#45;&gt;org_ops4j_pax_logging_pax_logging_api -->
<g id="edge52" class="edge"><title>org_apache_mina_core&#45;&gt;org_ops4j_pax_logging_pax_logging_api</title>
<path fill="none" stroke="#bdbdbd" d="M1354.73,-110.192C1357.52,-110.831 1360.29,-111.438 1363,-112 1416.67,-123.129 1565.36,-112.358 1607,-148 1645.6,-181.046 1642.4,-210.719 1630,-260 1627.56,-269.701 1623,-279.558 1618.21,-288.149"/>
<polygon fill="#bdbdbd" stroke="#bdbdbd" points="1615.11,-286.522 1613.01,-296.907 1621.12,-290.097 1615.11,-286.522"/>
</g>
<!-- org_apache_servicemix_bundles_junit -->
<g id="node31" class="node"><title>org_apache_servicemix_bundles_junit</title>
<polygon fill="#bdbdbd" stroke="black" points="1063.5,-1 1063.5,-37 1236.5,-37 1236.5,-1 1063.5,-1"/>
<text text-anchor="middle" x="1150" y="-26.1" font-family="Arial" font-size="8.00">Apache ServiceMix :: Bundles :: junit</text>
<polyline fill="none" stroke="black" points="1063.5,-19 1236.5,-19 "/>
<text text-anchor="middle" x="1150" y="-8.1" font-family="Arial" font-size="8.00">org.apache.servicemix.bundles.junit(3.8.2.4)</text>
</g>
<!-- bcprov&#45;&gt;org_apache_servicemix_bundles_junit -->
<g id="edge53" class="edge"><title>bcprov&#45;&gt;org_apache_servicemix_bundles_junit</title>
<path fill="none" stroke="#bdbdbd" d="M1150,-74.937C1150,-66.8072 1150,-56.8761 1150,-47.7047"/>
<polygon fill="#bdbdbd" stroke="#bdbdbd" points="1153.5,-47.4406 1150,-37.4407 1146.5,-47.4407 1153.5,-47.4406"/>
</g>
</g>
</svg>
